<svg width="103" height="15" viewBox="0 0 103 15" fill="none" xmlns="http://www.w3.org/2000/svg">
<path d="M102.495 11.3482H90.8965V8.55745L95.584 4.82925L97.8733 3.39029V3.17227L95.584 3.30308H91.2236V0.425171H102.168V3.23768L97.1102 7.1403L95.039 8.42664V8.64466L97.1102 8.49205H102.495V11.3482Z" fill="#72B944"/>
<path d="M90.2214 11.3482H88.2224C86.3363 11.3482 85.1917 10.4616 85.1917 8.43032V5.27061H83.9182V3.27162H85.1917V1.70789H87.6098V3.27162H90.2214V5.27061H87.6098V8.15626C87.6098 8.96231 87.9161 9.17188 88.7706 9.17188H90.2214V11.3482Z" fill="black"/>
<path d="M76.7946 11.3481H74.3764V3.27153H76.6173V5.75416H76.7623C76.9719 4.4 77.9392 3.11032 80.051 3.11032C82.2596 3.11032 83.3074 4.52896 83.3074 6.31839V11.3481H80.8893V7.12443C80.8893 5.83476 80.3573 5.28665 78.8742 5.28665C77.3427 5.28665 76.7946 5.89924 76.7946 7.26952V11.3481Z" fill="black"/>
<path d="M68.9984 11.5093C66.3062 11.5093 64.4684 10.1874 64.4684 7.31789C64.4684 4.73854 66.29 3.11032 68.95 3.11032C71.5938 3.11032 73.351 4.49672 73.351 7.02771C73.351 7.31789 73.3188 7.52746 73.2865 7.80151H66.7092C66.7737 9.04283 67.354 9.57482 68.9177 9.57482C70.3525 9.57482 70.8523 9.20404 70.8523 8.51084V8.34963H73.2704V8.52696C73.2704 10.2841 71.5616 11.5093 68.9984 11.5093ZM68.9016 4.99647C67.4669 4.99647 66.8543 5.4801 66.7414 6.52796H71.0296C70.9651 5.46398 70.3203 4.99647 68.9016 4.99647Z" fill="black"/>
<path d="M51.1648 11.3481H48.7467V3.27153H50.9875V5.72191H51.1165C51.3099 4.36775 52.116 3.11032 54.1472 3.11032C56.0172 3.11032 56.9684 4.25491 57.1457 5.75416H57.2908C57.4842 4.38388 58.3064 3.11032 60.386 3.11032C62.4656 3.11032 63.4812 4.4806 63.4812 6.31839V11.3481H61.0631V7.12443C61.0631 5.7864 60.5956 5.28665 59.2092 5.28665C57.7422 5.28665 57.323 5.867 57.323 7.26952V11.3481H54.9049V7.12443C54.9049 5.7864 54.4374 5.28665 53.051 5.28665C51.584 5.28665 51.1648 5.867 51.1648 7.26952V11.3481Z" fill="black"/>
<path d="M47.841 11.3482H45.842C43.9559 11.3482 42.8113 10.4616 42.8113 8.43032V5.27061H41.5377V3.27162H42.8113V1.70789H45.2294V3.27162H47.841V5.27061H45.2294V8.15626C45.2294 8.96231 45.5357 9.17188 46.3901 9.17188H47.841V11.3482Z" fill="black"/>
<path d="M36.0514 11.3481H33.6333V3.27153H35.8741V5.41561H36.0192C36.2449 4.10982 37.0993 3.11032 38.7275 3.11032C40.5331 3.11032 41.2746 4.35163 41.2746 5.93149V7.26952H38.8565V6.43123C38.8565 5.54458 38.5018 5.15768 37.5184 5.15768C36.4383 5.15768 36.0514 5.65743 36.0514 6.67305V11.3481Z" fill="black"/>
<path d="M26.733 11.5093C24.992 11.5093 23.9441 10.7033 23.9441 9.34912C23.9441 8.15618 24.8308 7.41461 26.5557 7.23728L30.0217 6.88262V6.57632C30.0217 5.52846 29.5542 5.23829 28.2645 5.23829C27.0393 5.23829 26.5396 5.5607 26.5396 6.4796V6.54408H24.1053V6.49572C24.1053 4.49672 25.7819 3.11032 28.4419 3.11032C31.1341 3.11032 32.4076 4.49672 32.4076 6.60856V11.3481H30.1507V9.49421H30.0217C29.6509 10.7516 28.5225 11.5093 26.733 11.5093ZM26.3784 9.18791C26.3784 9.62318 26.7169 9.80051 27.4262 9.80051C29.0706 9.80051 29.9572 9.41361 30.0217 8.26902L27.2167 8.59144C26.6363 8.6398 26.3784 8.80101 26.3784 9.18791Z" fill="black"/>
<path d="M16.1679 14.0887H13.7498V3.27153H15.9906V5.4801H16.1518C16.442 3.93249 17.4737 3.11032 19.376 3.11032C21.8586 3.11032 23.245 4.75466 23.245 7.31789C23.245 9.88111 21.8908 11.5093 19.4566 11.5093C17.5865 11.5093 16.5548 10.5904 16.2807 9.17179H16.1679V14.0887ZM16.1679 7.43073C16.1679 8.81713 17.0062 9.30076 18.5216 9.30076C20.0692 9.30076 20.7946 8.78489 20.7946 7.31789C20.7946 5.83476 20.0692 5.33501 18.5377 5.33501C16.9739 5.33501 16.1679 5.867 16.1679 7.30176V7.43073Z" fill="black"/>
<path d="M2.96497 11.348H0.256653L4.98009 0.546936H8.42997L13.1856 11.348H10.4128L9.39723 8.96207H3.99671L2.96497 11.348ZM5.94734 4.43208L4.93173 6.78574H8.46221L7.44659 4.43208L6.78563 2.7555H6.6083L5.94734 4.43208Z" fill="black"/>
</svg>
