<svg width="97" height="23" viewBox="0 0 97 23" fill="none" xmlns="http://www.w3.org/2000/svg">
<rect x="0.79245" y="0.364548" width="95.8396" height="21.8024" rx="10.9012" fill="#72B944"/>
<path d="M15.8797 14.2657V7.90671H20.7671V9.05133H17.197V10.5048H19.5498V11.6131H17.197V13.1211H20.8034V14.2657H15.8797ZM21.0823 14.2657L22.8991 11.8584L21.1277 9.5328H22.5721L23.6168 10.9409L24.6524 9.5328H26.0514L24.3072 11.8402L26.1604 14.2657H24.7069L23.5896 12.7577L22.4722 14.2657H21.0823ZM26.63 16.1189V9.5328H27.8563V9.92343C28.2439 9.62062 28.6921 9.46921 29.2008 9.46921C29.649 9.46921 30.0547 9.57822 30.4181 9.79625C30.7815 10.0143 31.0692 10.308 31.2811 10.6774C31.4992 11.0408 31.6082 11.4496 31.6082 11.9038C31.6082 12.358 31.4992 12.7698 31.2811 13.1393C31.0631 13.5026 30.7694 13.7933 30.4 14.0114C30.0305 14.2233 29.6187 14.3293 29.1645 14.3293C28.9283 14.3293 28.7012 14.299 28.4832 14.2385C28.2651 14.1719 28.0623 14.078 27.8745 13.9569V16.1189H26.63ZM29.001 13.2755C29.2614 13.2755 29.4945 13.215 29.7005 13.0939C29.9124 12.9727 30.079 12.8092 30.2001 12.6033C30.3212 12.3974 30.3818 12.1642 30.3818 11.9038C30.3818 11.6434 30.3212 11.4102 30.2001 11.2043C30.079 10.9923 29.9124 10.8288 29.7005 10.7138C29.4945 10.5926 29.2614 10.5321 29.001 10.5321C28.7708 10.5321 28.5589 10.5714 28.3651 10.6502C28.1773 10.7228 28.0138 10.8349 27.8745 10.9863V12.8304C28.0077 12.9697 28.1713 13.0787 28.3651 13.1574C28.5649 13.2362 28.7769 13.2755 29.001 13.2755ZM32.3609 14.2657V7.90671L33.6054 7.69777V14.2657H32.3609ZM36.8862 14.3566C36.4138 14.3566 35.9868 14.2476 35.6053 14.0295C35.2237 13.8115 34.9209 13.5178 34.6968 13.1484C34.4728 12.7789 34.3607 12.3641 34.3607 11.9038C34.3607 11.4435 34.4697 11.0287 34.6878 10.6593C34.9118 10.2838 35.2146 9.98702 35.5962 9.76899C35.9838 9.55097 36.4138 9.44196 36.8862 9.44196C37.3585 9.44196 37.7855 9.55097 38.167 9.76899C38.5546 9.98702 38.8575 10.2838 39.0755 10.6593C39.2996 11.0287 39.4116 11.4435 39.4116 11.9038C39.4116 12.3641 39.2996 12.7789 39.0755 13.1484C38.8575 13.5178 38.5577 13.8115 38.1761 14.0295C37.7946 14.2476 37.3646 14.3566 36.8862 14.3566ZM36.8862 13.2755C37.1345 13.2755 37.3555 13.215 37.5493 13.0939C37.7492 12.9727 37.9066 12.8092 38.0217 12.6033C38.1428 12.3913 38.2034 12.1582 38.2034 11.9038C38.2034 11.6434 38.1428 11.4102 38.0217 11.2043C37.9066 10.9984 37.7492 10.8349 37.5493 10.7138C37.3555 10.5866 37.1345 10.523 36.8862 10.523C36.6439 10.523 36.4229 10.5866 36.223 10.7138C36.0231 10.8349 35.8657 10.9984 35.7506 11.2043C35.6355 11.4102 35.578 11.6434 35.578 11.9038C35.578 12.1582 35.6355 12.3913 35.7506 12.6033C35.8657 12.8092 36.0231 12.9727 36.223 13.0939C36.4229 13.215 36.6439 13.2755 36.8862 13.2755ZM40.1766 14.2657V9.5328H41.4211V10.0597C41.5726 9.85378 41.7542 9.69632 41.9662 9.58731C42.1782 9.4783 42.4174 9.42379 42.6839 9.42379C42.914 9.42985 43.0866 9.46618 43.2017 9.5328V10.6229C43.1108 10.5805 43.0109 10.5502 42.9019 10.5321C42.7929 10.5079 42.6808 10.4957 42.5658 10.4957C42.3235 10.4957 42.1025 10.5563 41.9026 10.6774C41.7028 10.7986 41.5423 10.9712 41.4211 11.1952V14.2657H40.1766ZM46.015 14.3566C45.5427 14.3566 45.1127 14.2476 44.7251 14.0295C44.3435 13.8115 44.0407 13.5178 43.8166 13.1484C43.5926 12.7789 43.4805 12.3641 43.4805 11.9038C43.4805 11.4435 43.5865 11.0287 43.7985 10.6593C44.0165 10.2898 44.3102 9.9961 44.6796 9.77808C45.0491 9.56005 45.4609 9.45104 45.9151 9.45104C46.3693 9.45104 46.7721 9.56308 47.1233 9.78716C47.4746 10.0112 47.7501 10.3141 47.95 10.6956C48.1559 11.0771 48.2589 11.5102 48.2589 11.9947V12.3217H44.7523C44.8068 12.5094 44.8946 12.679 45.0158 12.8304C45.1429 12.9818 45.2974 13.0999 45.4791 13.1847C45.6668 13.2695 45.8667 13.3119 46.0786 13.3119C46.2906 13.3119 46.4844 13.2786 46.66 13.212C46.8417 13.1453 46.9961 13.0515 47.1233 12.9303L47.9409 13.6753C47.6502 13.9114 47.3504 14.084 47.0416 14.1931C46.7388 14.3021 46.3966 14.3566 46.015 14.3566ZM44.7342 11.4314H47.0325C46.9901 11.2437 46.9114 11.0802 46.7963 10.9409C46.6873 10.7955 46.554 10.6835 46.3966 10.6048C46.2452 10.52 46.0756 10.4776 45.8879 10.4776C45.6941 10.4776 45.5184 10.5169 45.361 10.5957C45.2035 10.6744 45.0703 10.7864 44.9613 10.9318C44.8583 11.0711 44.7826 11.2376 44.7342 11.4314ZM50.9307 14.2657V7.90671H52.1843L55.3456 12.0128V7.90671H56.5811V14.2657H55.4183L52.1752 10.0143V14.2657H50.9307ZM59.9607 14.3566C59.4883 14.3566 59.0613 14.2476 58.6798 14.0295C58.2982 13.8115 57.9954 13.5178 57.7714 13.1484C57.5473 12.7789 57.4352 12.3641 57.4352 11.9038C57.4352 11.4435 57.5442 11.0287 57.7623 10.6593C57.9864 10.2838 58.2892 9.98702 58.6707 9.76899C59.0583 9.55097 59.4883 9.44196 59.9607 9.44196C60.4331 9.44196 60.86 9.55097 61.2416 9.76899C61.6292 9.98702 61.932 10.2838 62.15 10.6593C62.3741 11.0287 62.4861 11.4435 62.4861 11.9038C62.4861 12.3641 62.3741 12.7789 62.15 13.1484C61.932 13.5178 61.6322 13.8115 61.2507 14.0295C60.8691 14.2476 60.4391 14.3566 59.9607 14.3566ZM59.9607 13.2755C60.209 13.2755 60.43 13.215 60.6238 13.0939C60.8237 12.9727 60.9812 12.8092 61.0962 12.6033C61.2173 12.3913 61.2779 12.1582 61.2779 11.9038C61.2779 11.6434 61.2173 11.4102 61.0962 11.2043C60.9812 10.9984 60.8237 10.8349 60.6238 10.7138C60.43 10.5866 60.209 10.523 59.9607 10.523C59.7184 10.523 59.4974 10.5866 59.2975 10.7138C59.0977 10.8349 58.9402 10.9984 58.8251 11.2043C58.7101 11.4102 58.6525 11.6434 58.6525 11.9038C58.6525 12.1582 58.7101 12.3913 58.8251 12.6033C58.9402 12.8092 59.0977 12.9727 59.2975 13.0939C59.4974 13.215 59.7184 13.2755 59.9607 13.2755ZM64.0618 14.2657L62.7627 9.5328H63.9437L64.7249 12.5851L65.6697 9.5328H66.7144L67.6501 12.5942L68.4313 9.5328H69.5941L68.286 14.2657H67.0959L66.1784 11.2407L65.2609 14.2657H64.0618Z" fill="white"/>
<path d="M81.9864 11.266L79.2566 8.53613L78.6139 9.17794L80.7033 11.266L78.6139 13.3535L79.2562 13.9958L81.9864 11.266Z" fill="white"/>
</svg>
