<svg width="9" height="7" viewBox="0 0 9 7" fill="none" xmlns="http://www.w3.org/2000/svg">
<path d="M8.80398 0.976557C8.49202 1.11387 8.16194 1.20434 7.82423 1.2451C8.17916 1.03455 8.44605 0.700042 8.57491 0.304326C8.23934 0.503115 7.87283 0.642595 7.49106 0.716792C7.33032 0.546104 7.13696 0.410319 6.92279 0.317689C6.70863 0.225058 6.47807 0.177515 6.24524 0.177951C5.30238 0.177951 4.5394 0.939698 4.5394 1.87872C4.53873 2.00934 4.5535 2.13956 4.58341 2.26662C3.90733 2.23451 3.24531 2.05978 2.63971 1.75362C2.03411 1.44746 1.49825 1.01661 1.06643 0.488616C0.914936 0.747351 0.834817 1.04256 0.834444 1.34339C0.834444 1.93313 1.13816 2.45442 1.59675 2.75982C1.32504 2.75329 1.05891 2.68043 0.820931 2.54744V2.56851C0.820931 3.39344 1.40998 4.07972 2.18961 4.23593C2.043 4.27552 1.89193 4.29558 1.7402 4.29561C1.63254 4.2958 1.52512 4.28521 1.41951 4.26401C1.63625 4.93976 2.26705 5.43121 3.01428 5.44525C2.4071 5.91931 1.66165 6.17552 0.895082 6.17364C0.759017 6.17345 0.623075 6.16522 0.487946 6.14906C1.26778 6.65354 2.17427 6.92039 3.09952 6.91786C6.24161 6.91786 7.95814 4.32544 7.95814 2.07706C7.95814 2.00334 7.95623 1.92962 7.95278 1.85766C8.28594 1.61756 8.57419 1.31919 8.80398 0.976557Z" fill="white"/>
</svg>
