<svg width="11" height="12" viewBox="0 0 11 12" fill="none" xmlns="http://www.w3.org/2000/svg">
<mask id="mask0_1_633" style="mask-type:alpha" maskUnits="userSpaceOnUse" x="0" y="0" width="11" height="12">
<rect x="0.0654297" y="0.904785" width="10.9012" height="10.9012" fill="#D9D9D9"/>
</mask>
<g mask="url(#mask0_1_633)">
<path d="M5.51601 10.8976C4.88767 10.8976 4.29719 10.7783 3.74456 10.5399C3.19193 10.3014 2.71122 9.97776 2.30243 9.56897C1.89363 9.16018 1.57 8.67946 1.33154 8.12683C1.09308 7.5742 0.973846 6.98372 0.973846 6.35539C0.973846 5.72706 1.09308 5.13658 1.33154 4.58395C1.57 4.03132 1.89363 3.55061 2.30243 3.14181C2.71122 2.73302 3.19193 2.40939 3.74456 2.17093C4.29719 1.93246 4.88767 1.81323 5.51601 1.81323C6.14434 1.81323 6.73482 1.93246 7.28745 2.17093C7.84008 2.40939 8.32079 2.73302 8.72958 3.14181C9.13838 3.55061 9.46201 4.03132 9.70047 4.58395C9.93893 5.13658 10.0582 5.72706 10.0582 6.35539C10.0582 6.98372 9.93893 7.5742 9.70047 8.12683C9.46201 8.67946 9.13838 9.16018 8.72958 9.56897C8.32079 9.97776 7.84008 10.3014 7.28745 10.5399C6.73482 10.7783 6.14434 10.8976 5.51601 10.8976ZM5.51601 9.98912C6.53042 9.98912 7.38965 9.6371 8.09368 8.93307C8.79772 8.22903 9.14973 7.36981 9.14973 6.35539C9.14973 6.3024 9.14784 6.24752 9.14406 6.19074C9.14027 6.13396 9.13838 6.08665 9.13838 6.0488C9.10053 6.26833 8.99833 6.45002 8.83178 6.59386C8.66524 6.73769 8.46841 6.80961 8.2413 6.80961H7.33287C7.08305 6.80961 6.86919 6.72066 6.69129 6.54276C6.51339 6.36485 6.42444 6.15099 6.42444 5.90118V5.44696H4.60757V4.53853C4.60757 4.28871 4.69652 4.07485 4.87443 3.89695C5.05233 3.71905 5.26619 3.6301 5.51601 3.6301H5.97022C5.97022 3.45598 6.01754 3.30268 6.11216 3.1702C6.20679 3.03772 6.32224 2.92985 6.4585 2.84657C6.3071 2.80872 6.1538 2.77844 5.99861 2.75573C5.84342 2.73302 5.68255 2.72166 5.51601 2.72166C4.50159 2.72166 3.64236 3.07368 2.93833 3.77772C2.2343 4.48175 1.88228 5.34098 1.88228 6.35539H4.15336C4.653 6.35539 5.08072 6.53329 5.43652 6.8891C5.79232 7.2449 5.97022 7.67262 5.97022 8.17226V8.62647H4.60757V9.87556C4.75898 9.91342 4.90849 9.9418 5.05611 9.96073C5.20373 9.97966 5.35703 9.98912 5.51601 9.98912Z" fill="white"/>
</g>
</svg>
