<svg width="9" height="9" viewBox="0 0 9 9" fill="none" xmlns="http://www.w3.org/2000/svg">
<path d="M6.3208 1.40102C6.74926 1.40227 7.15987 1.56888 7.46283 1.86447C7.76584 2.16006 7.93662 2.56061 7.9379 2.97863V6.13352C7.93662 6.55153 7.76584 6.9521 7.46283 7.24766C7.15987 7.54327 6.74926 7.70985 6.3208 7.71114H3.08689C2.6584 7.70985 2.24782 7.54327 1.94483 7.24766C1.64184 6.9521 1.47105 6.55153 1.46977 6.13352V2.97863C1.47105 2.56061 1.64184 2.16006 1.94483 1.86447C2.24782 1.56888 2.6584 1.40227 3.08689 1.40102H6.3208ZM6.3208 0.770081H3.08689C1.84174 0.770081 0.823029 1.7639 0.823029 2.97863V6.13352C0.823029 7.34826 1.84174 8.34207 3.08689 8.34207H6.3208C7.56594 8.34207 8.58465 7.34826 8.58465 6.13352V2.97863C8.58465 1.7639 7.56594 0.770081 6.3208 0.770081Z" fill="white"/>
<path d="M6.80653 2.97876C6.7106 2.97876 6.6168 2.951 6.53704 2.899C6.45728 2.847 6.3951 2.77309 6.35835 2.68661C6.32165 2.60013 6.31207 2.50498 6.33078 2.41318C6.34949 2.32138 6.39569 2.23705 6.46355 2.17087C6.53136 2.10468 6.6178 2.05961 6.71191 2.04135C6.80603 2.02309 6.90355 2.03246 6.99221 2.06828C7.08083 2.1041 7.15659 2.16476 7.20991 2.24258C7.26319 2.32041 7.29163 2.4119 7.29163 2.50551C7.29176 2.56769 7.27932 2.62929 7.25502 2.68677C7.23067 2.74425 7.19493 2.79647 7.14987 2.84044C7.10481 2.88441 7.05126 2.91927 6.99235 2.94301C6.93343 2.96674 6.8703 2.97889 6.80653 2.97876ZM4.7045 3.29414C4.96036 3.29414 5.21048 3.36816 5.42321 3.50684C5.63597 3.64551 5.80175 3.84262 5.89968 4.07323C5.99761 4.30384 6.02323 4.55759 5.97331 4.80241C5.92339 5.04723 5.80016 5.27211 5.61925 5.44858C5.43834 5.6251 5.20783 5.74529 4.95688 5.79398C4.70594 5.84271 4.44582 5.81772 4.20944 5.72219C3.97305 5.62666 3.77101 5.46492 3.62886 5.25734C3.48672 5.0498 3.41084 4.8058 3.41084 4.55619C3.41121 4.22159 3.54762 3.90079 3.79015 3.66418C4.03268 3.42758 4.36151 3.2945 4.7045 3.29414ZM4.7045 2.6632C4.32072 2.6632 3.94557 2.77422 3.62647 2.98222C3.30737 3.19023 3.05867 3.48588 2.91181 3.83178C2.76494 4.17767 2.72651 4.5583 2.80139 4.9255C2.87625 5.29272 3.06106 5.63002 3.33243 5.89475C3.6038 6.15948 3.94955 6.33978 4.32595 6.4128C4.70235 6.48588 5.0925 6.44837 5.44706 6.30508C5.80162 6.16183 6.10467 5.91919 6.31788 5.60789C6.53109 5.29659 6.64492 4.9306 6.64492 4.55619C6.64492 4.05414 6.44047 3.57265 6.07655 3.21764C5.71268 2.86264 5.21913 2.6632 4.7045 2.6632Z" fill="white"/>
</svg>
