<svg width="6" height="5" viewBox="0 0 6 5" fill="none" xmlns="http://www.w3.org/2000/svg">
<path d="M4.80651 0.978755C4.71058 0.978755 4.61678 0.950998 4.53702 0.899C4.45726 0.846997 4.39508 0.773086 4.35834 0.686612C4.32163 0.600134 4.31205 0.504982 4.33076 0.41318C4.34948 0.321377 4.39567 0.237053 4.46353 0.170868C4.53135 0.104683 4.61778 0.0596098 4.7119 0.0413506C4.80601 0.0230914 4.90353 0.0324603 4.99219 0.0682793C5.08081 0.104098 5.15657 0.164757 5.2099 0.242584C5.26318 0.320407 5.29161 0.411905 5.29161 0.505506C5.29175 0.567693 5.2793 0.62929 5.255 0.686769C5.23066 0.744247 5.19491 0.796471 5.14985 0.84044C5.10479 0.884413 5.05124 0.919266 4.99233 0.943005C4.93342 0.96674 4.87028 0.978889 4.80651 0.978755ZM2.70448 1.29414C2.96035 1.29414 3.21046 1.36816 3.4232 1.50684C3.63595 1.64551 3.80174 1.84262 3.89967 2.07323C3.9976 2.30384 4.02321 2.55759 3.9733 2.80241C3.92338 3.04723 3.80015 3.27211 3.61924 3.44858C3.43832 3.6251 3.20781 3.74529 2.95687 3.79398C2.70592 3.84271 2.44581 3.81772 2.20943 3.72219C1.97304 3.62666 1.771 3.46492 1.62885 3.25734C1.4867 3.0498 1.41083 2.8058 1.41083 2.55619C1.4112 2.22159 1.54761 1.90079 1.79013 1.66418C2.03266 1.42758 2.3615 1.2945 2.70448 1.29414ZM2.70448 0.663199C2.32071 0.663199 1.94555 0.774223 1.62646 0.982225C1.30736 1.19023 1.05865 1.48588 0.91179 1.83178C0.764924 2.17767 0.726497 2.5583 0.80137 2.9255C0.876239 3.29272 1.06105 3.63002 1.33242 3.89475C1.60378 4.15948 1.94953 4.33978 2.32593 4.4128C2.70233 4.48588 3.09249 4.44837 3.44704 4.30508C3.8016 4.16183 4.10466 3.91919 4.31786 3.60789C4.53107 3.29659 4.6449 2.9306 4.6449 2.55619C4.6449 2.05414 4.44046 1.57265 4.07654 1.21764C3.71267 0.862638 3.21911 0.663199 2.70448 0.663199Z" fill="white"/>
</svg>
