<svg width="9" height="9" viewBox="0 0 9 9" fill="none" xmlns="http://www.w3.org/2000/svg">
<path d="M4.36402 0.362549C2.18641 0.362549 0.420731 2.15054 0.420731 4.35567C0.420731 5.99037 1.39247 7.39506 2.78142 8.01366C2.77086 7.73558 2.77966 7.40044 2.85008 7.09738C2.92578 6.77292 3.35707 4.92077 3.35707 4.92077C3.35707 4.92077 3.23032 4.66585 3.23032 4.28971C3.23032 3.69787 3.56832 3.25578 3.99081 3.25578C4.34993 3.25578 4.52245 3.52852 4.52245 3.85475C4.52245 4.22019 4.29184 4.76568 4.17389 5.27197C4.07531 5.69624 4.38338 6.04025 4.79707 6.04025C5.54347 6.04025 6.04697 5.06871 6.04697 3.91714C6.04697 3.04186 5.46426 2.38763 4.40626 2.38763C3.21096 2.38763 2.46455 3.29143 2.46455 4.30041C2.46455 4.64802 2.56665 4.89403 2.72509 5.08298C2.79726 5.17032 2.80783 5.20598 2.78142 5.30583C2.76206 5.37891 2.71981 5.55538 2.70044 5.62671C2.67403 5.72831 2.59306 5.76397 2.50328 5.72651C1.95228 5.49832 1.69526 4.88868 1.69526 4.20058C1.69526 3.06682 2.64059 1.70666 4.51365 1.70666C6.01881 1.70666 7.00991 2.81012 7.00991 3.99379C7.00991 5.56072 6.14908 6.73013 4.88157 6.73013C4.45556 6.73013 4.05595 6.49664 3.91864 6.23278C3.91864 6.23278 3.68978 7.15265 3.64049 7.33091C3.55775 7.63931 3.39404 7.94592 3.2444 8.18658C3.60738 8.295 3.98382 8.35022 4.36226 8.35059C6.53989 8.35059 8.30556 6.56258 8.30556 4.35745C8.30556 2.15232 6.54161 0.362549 4.36402 0.362549Z" fill="white"/>
</svg>
