<svg width="11" height="11" viewBox="0 0 11 11" fill="none" xmlns="http://www.w3.org/2000/svg">
<path d="M9.75034 8.28756C9.38619 7.92069 8.50431 7.38532 8.07647 7.16957C7.51928 6.88895 7.47342 6.86602 7.03545 7.19136C6.74332 7.40847 6.5491 7.60247 6.20722 7.52954C5.86533 7.45664 5.12243 7.04553 4.4719 6.39713C3.82141 5.74873 3.38642 4.98429 3.31327 4.64358C3.24012 4.30287 3.43732 4.11096 3.6524 3.81816C3.95554 3.40546 3.93261 3.33667 3.6735 2.77951C3.47148 2.34617 2.92048 1.47261 2.55223 1.11034C2.1583 0.721251 2.1583 0.790036 1.90447 0.895506C1.69782 0.982446 1.49957 1.08813 1.31219 1.21123C0.945318 1.45495 0.7417 1.65741 0.599308 1.96167C0.456914 2.26592 0.39294 2.97922 1.1283 4.31501C1.86365 5.65081 2.37957 6.33385 3.44741 7.39864C4.51523 8.4634 5.33635 9.03593 6.53674 9.7091C8.02166 10.5407 8.59122 10.3786 8.89642 10.2365C9.20162 10.0943 9.40501 9.89253 9.64919 9.52566C9.77264 9.33863 9.87856 9.1406 9.96565 8.93413C10.0713 8.68124 10.1401 8.68124 9.75034 8.28756Z" fill="white"/>
</svg>
